<?xml version="1.0" encoding="UTF-8" standalone="no"?>
<!-- Created with Inkscape (http://www.inkscape.org/) -->

<svg
   width="345.74115"
   height="509.32248"
   id="svg2"
   version="1.1"
   inkscape:version="1.2.2 (1:1.2.2+202212051550+b0a8486541)"
   sodipodi:docname="kneeling_angel.svg"
   inkscape:export-filename="/Users/Soda/Desktop/UK of the GB and NI.png"
   inkscape:export-xdpi="143.23364"
   inkscape:export-ydpi="143.23364"
   xmlns:inkscape="http://www.inkscape.org/namespaces/inkscape"
   xmlns:sodipodi="http://sodipodi.sourceforge.net/DTD/sodipodi-0.dtd"
   xmlns="http://www.w3.org/2000/svg"
   xmlns:svg="http://www.w3.org/2000/svg"
   xmlns:rdf="http://www.w3.org/1999/02/22-rdf-syntax-ns#"
   xmlns:cc="http://creativecommons.org/ns#"
   xmlns:dc="http://purl.org/dc/elements/1.1/">
  <defs
     id="defs4" />
  <sodipodi:namedview
     id="base"
     pagecolor="#ffffff"
     bordercolor="#666666"
     borderopacity="1.0"
     inkscape:pageopacity="0.0"
     inkscape:pageshadow="2"
     inkscape:zoom="2"
     inkscape:cx="159.25"
     inkscape:cy="302.75"
     inkscape:document-units="px"
     inkscape:current-layer="use7942"
     showgrid="false"
     inkscape:window-width="1920"
     inkscape:window-height="1145"
     inkscape:window-x="0"
     inkscape:window-y="31"
     inkscape:window-maximized="1"
     showguides="false"
     inkscape:guide-bbox="true"
     inkscape:object-nodes="false"
     inkscape:snap-nodes="false"
     inkscape:snap-page="true"
     inkscape:snap-bbox="false"
     inkscape:snap-grids="false"
     inkscape:snap-to-guides="false"
     fit-margin-top="0"
     fit-margin-left="0"
     fit-margin-right="0"
     fit-margin-bottom="0"
     inkscape:snap-global="false"
     inkscape:measure-start="0,0"
     inkscape:measure-end="0,0"
     inkscape:showpageshadow="0"
     inkscape:pagecheckerboard="1"
     inkscape:deskcolor="#d1d1d1">
    <inkscape:grid
       type="xygrid"
       id="grid14322"
       empspacing="5"
       visible="true"
       enabled="true"
       snapvisiblegridlinesonly="true"
       originx="134.89594"
       originy="108.64729" />
  </sodipodi:namedview>
  <metadata
     id="metadata7">
    <rdf:RDF>
      <cc:Work
         rdf:about="">
        <dc:format>image/svg+xml</dc:format>
        <dc:type
           rdf:resource="http://purl.org/dc/dcmitype/StillImage" />
      </cc:Work>
    </rdf:RDF>
  </metadata>
  <g transform="translate(345.74115, 0) scale(-1, 1)">
  <g
     transform="matrix(6.2181408,0,0,6.2181408,3106.6071,475.93751)"
     id="use7942"
     style="display:inline;stroke-width:0.643279;stroke-miterlimit:4;stroke-dasharray:none"
     inkscape:groupmode="layer"
     inkscape:label="angel">
    <path
       style="display:inline;fill:#999999;fill-opacity:1;stroke:#9E7A2E;stroke-width:1px;stroke-linecap:butt;stroke-linejoin:miter;stroke-opacity:1"
       d="m -475.85781,-53.94781 c 0,0 2.18721,-2.65485 1.49402,-6.97213 -0.78568,-4.89342 -5.02088,-7.26384 -5.8516,-11.2052 -0.27402,-1.30011 0.38154,-2.87656 1.61853,-3.36156 5.2143,-2.04439 11.25895,1.93092 16.3098,5.97611 4.20617,3.36868 7.34981,8.88992 8.83965,14.06875 2.79955,9.7315 0.23982,21.36058 1.74303,31.37457 0.90226,6.01064 3.36157,14.06875 3.36157,14.06875 -2.23999,0.85042 -4.55043,-2.21389 -5.8516,-5.22909 -1.44248,-0.12251 -3.78073,-3.50681 -3.9379,-6.9581 -0.56352,-4.44252 -0.46206,-5.89265 -0.66869,-8.72918 -2.88916,-0.90223 -2.93894,-5.09776 -3.20793,-8.46011 -1.0837,0.19779 -2.72263,-3.30297 -2.89268,-3.99012 -2.16758,0.71712 -4.03746,0.64039 -5.6026,-0.249 z"
       id="path7944"
       inkscape:connector-curvature="0"
       sodipodi:nodetypes="csssssscccccccc" />
    <path
       sodipodi:type="inkscape:offset"
       inkscape:radius="-1.1997225"
       inkscape:original="M -672.53125 185.78906 C -673.91012 185.64066 -675.26674 185.77601 -676.57031 186.28711 C -677.8073 186.77211 -678.46152 188.34833 -678.1875 189.64844 C -677.35678 193.5898 -673.12162 195.9601 -672.33594 200.85352 C -671.64275 205.1708 -673.83008 207.82617 -673.83008 207.82617 L -668.47656 218.16016 C -666.91142 219.04955 -665.04258 219.12532 -662.875 218.4082 C -662.70495 219.09535 -661.06612 222.59623 -659.98242 222.39844 C -659.71343 225.76079 -659.6626 229.95714 -656.77344 230.85938 C -656.56681 233.69591 -656.66899 235.14537 -656.10547 239.58789 C -655.9483 243.03918 -653.61045 246.42436 -652.16797 246.54688 C -650.8668 249.56207 -648.5564 252.62581 -646.31641 251.77539 C -646.31641 251.77539 -648.77547 243.71767 -649.67773 237.70703 C -651.18094 227.69304 -648.62037 216.06353 -651.41992 206.33203 C -652.90976 201.1532 -656.0536 195.63235 -660.25977 192.26367 C -664.0479 189.22978 -668.39465 186.23426 -672.53125 185.78906 z "
       style="fill:#cccccc;fill-opacity:1;stroke:none;stroke-width:1px;stroke-linecap:butt;stroke-linejoin:miter;stroke-opacity:1"
       id="path7946"
       d="m -672.66016,186.98242 c -1.21846,-0.13113 -2.36542,-0.0122 -3.47265,0.42188 -0.54842,0.21502 -1.03505,1.26452 -0.88086,1.99609 0.34051,1.61558 1.45455,3.0575 2.73242,4.77734 1.27787,1.71985 2.68738,3.73641 3.12891,6.48633 0.63038,3.92613 -0.74557,6.26359 -1.33399,7.14844 l 4.85742,9.37695 c 1.18319,0.58602 2.55017,0.68445 4.37696,0.0801 a 1.1998425,1.1998425 0 0 1 1.54101,0.84961 c -0.008,-0.0338 0.11942,0.3437 0.29688,0.72852 0.17745,0.38482 0.41602,0.84588 0.66992,1.26562 0.2539,0.41974 0.53417,0.80022 0.72852,0.9961 0.19434,0.19587 0.21494,0.037 -0.18165,0.10937 a 1.1998425,1.1998425 0 0 1 1.41016,1.08398 c 0.13718,1.71474 0.2285,3.55378 0.58789,4.94922 0.35939,1.39544 0.84189,2.16893 1.7832,2.46289 a 1.1998425,1.1998425 0 0 1 0.83985,1.05664 c 0.21086,2.89466 0.10301,4.27378 0.66015,8.66602 a 1.1998425,1.1998425 0 0 1 0.01,0.0957 c 0.0671,1.4734 0.62496,3.02683 1.3125,4.16016 0.34377,0.56666 0.71971,1.02752 1.0332,1.31445 0.3135,0.28694 0.57051,0.35024 0.49414,0.34375 a 1.1998425,1.1998425 0 0 1 1,0.72071 c 0.60681,1.40614 1.47091,2.82635 2.32813,3.69726 0.27877,0.28322 0.51767,0.39895 0.76758,0.55469 -0.63865,-2.17294 -2.13977,-7.42441 -2.89258,-12.43945 -1.55314,-10.34663 0.96662,-21.92005 -1.70899,-31.22071 -1.42849,-4.96559 -4.50286,-10.31363 -8.4375,-13.46484 -3.73936,-2.99483 -7.99415,-5.8233 -11.65039,-6.2168 z"
       transform="translate(197.97267,-261.77428)" />
    <path
       style="display:inline;fill:#999999;fill-opacity:1;stroke:#9E7A2E;stroke-width:1px;stroke-linecap:butt;stroke-linejoin:miter;stroke-opacity:1"
       d="m -499.00725,-56.89565 c -0.0155,-0.0155 0.32369,1.82974 1.8444,3.18579 0.33861,0.30194 1.28549,0.44713 1.28549,0.44713 0.35902,1.03164 0.67463,2.32381 1.17371,2.51509 l 0.83837,-0.6148 0.55891,0.67069 0.33534,-0.22356 0.33535,0.44712 h 0.44713 l 0.95014,0.6707 c 0.81973,-0.12722 1.91892,-1.38868 2.4592,-2.17975 l 3.63292,0.83836 0.8632,0.40123 3.03498,-6.15198 -3.07599,-1.02533 -10.2533,-1.96863 z"
       id="path7948"
       inkscape:connector-curvature="0"
       sodipodi:nodetypes="cscccccccccc" />
    <path
       style="fill:#999999;fill-opacity:1;stroke:#9E7A2E;stroke-width:1px;stroke-linecap:butt;stroke-linejoin:miter;stroke-opacity:1"
       d="m -498.85776,-56.45923 c 0.92555,-1.74523 3.45182,0.60913 4.85454,-0.4304 1.15466,1.11605 2.71455,1.85956 4.42943,1.02533 0,0 1.67887,1.39551 2.70687,1.59952 0.9482,0.18817 2.01181,0.0331 2.87093,-0.41013 1.02267,-0.52755 1.33275,-2.02219 2.37876,-2.50181 2.15786,-0.98942 4.63449,0.41013 4.63449,0.41013 0.0631,-0.73189 -0.16533,-2.25252 -2.99396,-2.5018 -1.72255,-1.9536 -3.44511,-1.19939 -5.16766,-1.14837 -1.50422,0 -3.83073,-4.71673 -7.83353,-4.18335 -6.72997,0.89678 -6.11096,7.66948 -6.11096,7.66948 z"
       id="path7950"
       inkscape:connector-curvature="0"
       sodipodi:nodetypes="cccssscccscc" />
    <path
       style="fill:#ffffff;fill-opacity:1;stroke:none;stroke-width:1px;stroke-linecap:butt;stroke-linejoin:miter;stroke-opacity:1"
       d="m -492.26326,-63.61931 c -0.18864,-0.004 -0.38202,0.007 -0.58008,0.0332 -3.0268,0.40333 -4.16532,1.96243 -4.75781,3.52149 -0.27206,0.7159 -0.36667,1.38597 -0.41797,1.93359 0.002,-2.1e-4 0.004,-0.002 0.006,-0.002 0.17512,-0.0184 0.3411,-0.0205 0.50195,-0.0117 0.0754,-0.54074 0.22412,-1.26245 0.61914,-2.09961 0.66954,-1.41898 2.02677,-2.87896 4.55469,-2.91016 1.24615,-0.0154 2.32187,0.90319 3.35547,1.85157 1.0336,0.94839 2.04434,1.9472 3.01367,2.24609 0.49987,0.15418 1.14608,0.0776 1.82422,-0.0195 0.67814,-0.0972 1.38717,-0.21432 2.04297,-0.043 0.42738,0.11164 0.77458,0.41026 1.03125,0.67187 0.0358,0.0365 0.0265,0.0353 0.0586,0.0703 0.14605,-0.0208 0.29201,-0.0439 0.4375,-0.0625 a 1.0226642,1.0226642 0 0 1 -0.16992,-0.15235 c -0.70626,-0.80099 -1.21099,-0.94246 -1.875,-0.98047 -0.66401,-0.038 -1.49588,0.14811 -2.4961,0.17774 a 1.0226642,1.0226642 0 0 1 -0.0293,0.002 c -0.91048,0 -1.43249,-0.50823 -1.97265,-0.98437 -0.54017,-0.47613 -1.08545,-1.04025 -1.68164,-1.5625 -1.04335,-0.91392 -2.14435,-1.65121 -3.46485,-1.67969 z m -0.0684,0.96484 c -2.3423,0.0289 -3.48949,1.31345 -4.10742,2.62305 -0.36632,0.77638 -0.50503,1.44907 -0.57617,1.95313 0.15043,0.028 0.29153,0.0622 0.43164,0.0976 0.0323,-0.17221 0.0578,-0.32555 0.10547,-0.5293 0.15767,-0.67355 0.38518,-1.44451 0.77148,-1.89843 0.76516,-0.89906 1.64225,-1.5235 2.84961,-1.6211 0.88359,-0.0714 1.56307,0.31712 2.26758,0.74414 0.66235,0.40146 1.25071,1.04389 1.83984,1.66211 0.58913,0.61822 1.17793,1.21052 1.78516,1.52149 0.65591,0.33588 1.45981,0.41518 2.23828,0.42578 0.28816,0.004 0.60431,-0.10486 0.94336,-0.20899 0.33905,-0.10413 0.70658,-0.20583 1.0957,-0.11523 0.0962,0.0224 0.18337,0.0718 0.26953,0.12109 0.11955,-0.0792 0.2336,-0.16172 0.375,-0.22656 0.14369,-0.0659 0.28585,-0.11427 0.42774,-0.1543 -0.19515,-0.16855 -0.41047,-0.32394 -0.61328,-0.37695 -0.5099,-0.13321 -1.16469,-0.0429 -1.84571,0.0547 -0.68101,0.0976 -1.38954,0.20282 -2.04101,0.002 -1.16437,-0.35903 -2.18408,-1.41668 -3.20508,-2.35351 -1.021,-0.93682 -2.02522,-1.73291 -3.01172,-1.72071 z m -0.49414,1.02344 c -0.6453,0.0522 -1.16874,0.27691 -1.64453,0.61719 0.2421,-0.0405 0.50434,-0.0392 0.78515,0.0332 0.41761,0.10765 0.78124,0.33323 1.13086,0.5332 0.34962,0.2 0.68279,0.37282 1.02149,0.41602 0.41092,0.0524 0.78786,-0.12195 1.31641,-0.12109 0.1573,2e-4 0.30031,0.0216 0.43749,0.0508 -0.3395,-0.33239 -0.67813,-0.63488 -1.01953,-0.8418 -0.69883,-0.42358 -1.27525,-0.7483 -2.02734,-0.6875 z m -1.31055,0.98633 c -0.33508,-0.009 -0.62153,0.0996 -0.86328,0.25195 -0.32232,0.20313 -0.55669,0.4961 -0.65039,0.66016 -0.17751,0.37377 -0.33205,0.86398 -0.4375,1.31445 -0.0674,0.28798 -0.0769,0.39366 -0.0977,0.5332 0.0142,0.004 0.027,0.006 0.041,0.01 0.0233,-0.0633 0.0371,-0.11152 0.0957,-0.24023 0.24576,-0.53978 0.56427,-1.15513 0.99414,-1.4961 0.28305,-0.22452 0.56749,-0.33581 0.85547,-0.35351 0.28799,-0.0177 0.5643,0.0467 0.88282,0.1289 0.49496,0.12775 0.83598,0.48364 1.14843,0.78321 0.31244,0.29958 0.58798,0.53998 0.91016,0.58398 0.2518,0.0344 0.42519,-0.0556 0.66797,-0.18555 0.24278,-0.12995 0.55291,-0.30157 0.96289,-0.26367 0.67293,0.0622 1.15726,0.44335 1.64648,0.81836 0.51529,0.395 0.94695,0.84048 1.47852,1.01172 1.18612,0.38214 3.02344,0.0293 3.02344,0.0293 0,0 -1.69689,0.85466 -3.0586,0.41601 -0.65463,-0.21088 -1.23366,-0.66623 -1.74804,-1.06054 -0.48984,-0.37549 -0.88165,-0.67 -1.38868,-0.7168 -0.2544,-0.0235 -0.43372,0.0734 -0.67968,0.20508 -0.24597,0.13166 -0.56145,0.29623 -0.97071,0.24023 -0.51364,-0.0702 -0.87325,-0.41175 -1.1914,-0.7168 -0.31815,-0.30504 -0.6039,-0.57705 -0.92578,-0.66015 -0.30956,-0.0799 -0.53818,-0.12674 -0.72657,-0.11524 -0.1884,0.0115 -0.35102,0.0695 -0.57617,0.24805 -0.27747,0.22009 -0.61612,0.79774 -0.84961,1.31055 -0.0387,0.085 -0.0454,0.1106 -0.0645,0.1582 0.0316,0.008 0.0535,0.009 0.084,0.0156 0.0501,-0.0668 0.0859,-0.12517 0.14844,-0.19727 0.33894,-0.39039 0.82004,-0.81136 1.41797,-0.81836 0.57216,-0.007 1.01212,0.32766 1.41211,0.64258 0.4,0.31492 0.77055,0.61377 1.18359,0.67187 0.2906,0.0409 0.5846,-0.0834 0.91797,-0.23437 0.33338,-0.15097 0.70477,-0.32904 1.13672,-0.27344 0.59321,0.0764 1.00786,0.45697 1.37891,0.83008 0.37105,0.37311 0.71215,0.74441 1.14453,0.91211 0.82671,0.32063 1.98837,0.31323 3.26367,-0.45313 0.20336,-0.30393 0.45347,-0.64446 0.79492,-0.95312 -4.6e-4,-1.1e-4 -0.001,-0.002 -0.002,-0.002 -0.26823,-0.0625 -0.56175,0.005 -0.88867,0.10546 -0.32692,0.10041 -0.6797,0.23352 -1.06641,0.22852 -0.80053,-0.0109 -1.66441,-0.0868 -2.41406,-0.4707 -0.64926,-0.33247 -1.21824,-0.90454 -1.77344,-1.48438 l -0.0117,0.0117 c 0,0 -0.49437,-0.5323 -1.28515,-0.5332 -0.42746,-6.9e-4 -0.82983,0.18579 -1.36719,0.11718 -0.43585,-0.0556 -0.81371,-0.26109 -1.16992,-0.46484 -0.35621,-0.20375 -0.69275,-0.40684 -1.03125,-0.49414 -0.12258,-0.0316 -0.23987,-0.0479 -0.35157,-0.0508 z m 0.13477,2.29492 c -0.40204,0.005 -0.81538,0.3295 -1.1211,0.68164 -0.006,0.007 -0.008,0.0126 -0.0137,0.0195 0.006,6.4e-4 0.014,0.003 0.0195,0.004 0.3107,0.0328 0.41954,-0.004 0.50391,-0.0664 a 1.0226642,1.0226642 0 0 1 1.32031,0.0879 c 0.49344,0.47695 1.04767,0.83966 1.58399,0.99805 0.53632,0.15839 1.04722,0.15328 1.6875,-0.1582 a 1.0226642,1.0226642 0 0 1 1.10156,0.13281 c 0,0 0.38595,0.32139 0.89062,0.66602 0.50468,0.34464 1.17975,0.68076 1.36133,0.71679 0.69973,0.13886 1.56328,0.0156 2.20313,-0.31445 0.10844,-0.0559 0.2405,-0.19035 0.38867,-0.37109 -1.1011,0.45514 -2.12263,0.4274 -2.90234,0.125 -0.54708,-0.21217 -0.92396,-0.63875 -1.28516,-1.00196 -0.3612,-0.36321 -0.69579,-0.65899 -1.14453,-0.71679 -0.29161,-0.0376 -0.58595,0.089 -0.91992,0.24023 -0.33398,0.15123 -0.70687,0.32838 -1.13867,0.26758 -0.55964,-0.0788 -0.98139,-0.44401 -1.375,-0.75391 -0.39364,-0.30991 -0.75013,-0.56164 -1.16016,-0.55664 z"
       id="path7952"
       inkscape:connector-curvature="0" />
    <path
       style="display:inline;fill:#ffffff;fill-opacity:1;stroke:none;stroke-width:1px;stroke-linecap:butt;stroke-linejoin:miter;stroke-opacity:1"
       d="m -485.33985,-53.4387 c -0.55856,0.0743 -1.12919,0.0598 -1.68122,-0.0498 -0.7709,-0.15299 -1.44931,-0.60259 -2.03125,-1 -0.39512,-0.26982 -0.52466,-0.38392 -0.69727,-0.52149 -0.85611,0.28794 -1.71445,0.34696 -2.47265,0.12305 -0.74611,-0.22034 -1.33962,-0.69299 -1.9043,-1.17187 -0.68187,0.23372 -1.38995,0.21214 -1.97266,0.0703 -0.75265,-0.18318 -1.43176,-0.37458 -1.72461,-0.34375 v 6e-5 c -0.0725,0.008 -0.0875,0.0795 -0.125,0.0918 0.21484,0.55726 0.56201,1.27391 1.31055,1.9414 -0.0572,-0.0511 0.21297,0.10001 0.44727,0.16211 0.23429,0.0621 0.43359,0.0937 0.43359,0.0937 0.28946,0.0443 0.53071,0.24494 0.62695,0.52149 0.1895,0.54452 0.35778,1.11986 0.52344,1.54297 0.0235,0.0601 0.0414,0.082 0.0644,0.13476 l 0.21094,-0.1543 c 0.18482,-0.13558 0.43279,-0.31849 0.64258,-0.27734 0.17213,0.0338 0.31114,0.26381 0.43164,0.4082 l 0.10352,0.12305 c 0.15789,-0.25998 0.32755,-0.54286 0.77929,-0.81445 0.0508,0.40284 0.0785,0.79786 0.0371,1.16992 l 0.0977,0.1289 h 0.0508 c 0.16318,6.8e-4 0.32215,0.0519 0.45508,0.14649 l 0.56836,0.40234 c 0.16531,-0.0814 0.40325,-0.19467 0.71289,-0.49414 0.39337,-0.38045 0.78175,-0.86579 1.02148,-1.21679 0.18357,-0.26864 0.51303,-0.39732 0.83008,-0.32422 l 2.69788,0.56636 z m -9.05818,-1.65131 c 0,0 0.0617,0.54823 -0.0781,0.76172 -0.12667,0.19345 -0.60352,0.33984 -0.60352,0.33984 0,0 -0.0792,-0.38493 0,-0.55078 0.1261,-0.26395 0.68164,-0.55078 0.68164,-0.55078 z"
       id="path7954"
       inkscape:connector-curvature="0"
       sodipodi:nodetypes="ccccscccccccccccccccccccccccccccccccc" />
    <path
       style="fill:#999999;fill-opacity:1;stroke:#9E7A2E;stroke-width:1px;stroke-linecap:butt;stroke-linejoin:miter;stroke-opacity:1"
       d="m -486.89594,-39.58114 c 0,0 -0.9531,0.14996 -1.52954,0.0999 -2.08753,-0.18131 -6.188,-1.7582 -6.188,-1.7582 -1.00449,-0.48278 -0.34702,-0.68857 -0.44647,-1.02051 -1.20972,-0.35573 -1.0986,-0.98749 -0.9217,-1.36632 -0.35627,-0.55904 0.0165,-1.09137 0.53901,-1.18493 -0.14917,-0.47121 0.65084,-0.66139 0.95672,-0.7016 l 3.89066,0.57403 -0.63781,-0.95672 c 0.0494,-0.37105 0.35516,-1.0287 1.7221,-0.0638 0,0 1.5094,0.94051 2.16856,1.53075 0.74053,0.66311 1.97723,2.23235 1.97723,2.23235 z"
       id="path7956"
       inkscape:connector-curvature="0"
       sodipodi:nodetypes="cscccccccsscc" />
    <path
       style="fill:#999999;fill-opacity:1;stroke:#9E7A2E;stroke-width:1px;stroke-linecap:butt;stroke-linejoin:miter;stroke-opacity:1"
       d="m -450.37459,-7.68572 c -0.89853,-0.091 -2.23752,0.79834 -2.92383,1.30469 1.00922,1.60825 1.44756,4.53192 1.46485,6.84375 0.15599,0.0322 0.30464,0.0752 0.42968,0.16016 0.57076,0.38779 1.06344,0.94017 1.35743,1.56445 0.28425,0.6036 -0.0866,1.45159 0.33007,1.97266 0.24964,0.31219 0.71268,0.48242 1.11133,0.45312 0.34941,-0.0257 0.56593,-0.62605 0.9043,-0.53515 0.24308,0.0653 0.15188,0.53114 0.36914,0.6582 0.30771,0.17996 0.74592,0.1478 1.07031,0 0.76055,-0.34653 1.41492,-1.08701 1.64453,-1.89063 0.309,-1.08149 -0.0777,-2.30362 -0.5332,-3.33203 -0.67548,-1.52512 -2.39371,-2.41 -3.12695,-3.9082 -0.30991,-0.63322 -0.11055,-1.46514 -0.49414,-2.05664 -0.36706,-0.56601 -0.93234,-1.16638 -1.60352,-1.23438 z"
       id="path7958"
       inkscape:connector-curvature="0" />
    <path
       style="fill:#999999;fill-opacity:1;stroke:#9E7A2E;stroke-width:1px;stroke-linecap:butt;stroke-linejoin:miter;stroke-opacity:1"
       d="m -477.65376,-28.25324 c 0,0 -1.2461,-0.0298 -1.79819,-0.089 -1.39375,-0.14938 -3.12941,-1.59327 -4.69115,-2.23846 -1.31149,0.39029 -2.61481,-0.65949 -2.61481,-1.29999 -2.64523,-4.12909 0.9386,-10.96344 1.33469,-10.92784 l 1.66838,0.41709 c -0.93234,-3.74858 -0.80202,-4.94679 -0.64633,-6.0841 -0.54,-0.35596 -1.13841,-0.62426 -1.23171,-1.65031 0,0 1.54333,-5.23036 3.69979,-6.82075 0.74057,-0.54613 1.77934,-0.66073 2.69681,-0.58993 0.93105,0.0718 1.84307,0.48223 2.61254,1.01131 2.62215,1.80295 4.46327,3.92563 6.18729,6.60034 1.261,1.95637 1.9877,4.63773 3.1293,6.66609 0.69194,1.22941 1.57491,2.16042 2.22635,3.41176 0.96326,1.8503 0.0843,3.37101 0.0843,3.37101 2.55366,3.65774 3.78618,7.51895 4.2489,11.27082 0.75444,6.11737 -0.2874,12.52797 -1.98708,15.87383 -0.24052,0.47347 -0.31328,1.0939 0.16816,1.72549 0,0 1.14633,-0.24916 1.71643,-0.17373 1.12301,0.14859 2.04333,1.18106 3.17577,1.20982 1.03552,0.0263 2.9564,-0.95743 2.9564,-0.95743 3.02547,0.56425 3.46445,10.32435 2.33655,11.24088 -0.95455,0.79546 -2.28641,-0.66165 -3.02454,-1.05859 -5.57509,-2.9981 -12.70894,3.11814 -18.9034,1.81473 -1.41343,-0.29741 -2.88406,-1.20642 -3.61242,-2.45371 -3.28574,-5.62667 -2.28787,-15.92721 -0.46846,-23.50489 0.99051,-4.1254 0.73643,-6.76446 0.73643,-6.76446 z"
       id="path7960"
       inkscape:connector-curvature="0"
       sodipodi:nodetypes="cssssssscccccscsscssccssssc" />
    <path
       style="display:inline;fill:#cccccc;fill-opacity:1;stroke:none;stroke-width:1px;stroke-linecap:butt;stroke-linejoin:miter;stroke-opacity:1"
       d="m -464.03702,-10.18246 c 1.51617,-2.98462 2.86916,-8.99083 2.1425,-14.8829 -0.40587,-3.29096 -1.418,-6.63313 -3.44876,-9.84712 -1.61627,1.86025 -3.66123,2.00576 -5.53917,2.81931 -0.94414,1.90072 -2.61108,4.60394 -5.59715,5.08533 -0.0268,1.24355 -0.18373,3.27178 -0.78793,5.78823 -1.78633,7.43987 -2.36453,16.98927 0.56048,21.99821 0.51002,0.87339 1.74757,1.67313 2.85547,1.90625 2.65383,0.55841 5.59732,-0.40505 8.89069,-1.40822 3.29336,-1.00318 6.84475,-1.93695 10.10156,-0.18555 0.63277,0.34028 1.06729,0.76691 1.46094,0.99414 0.13544,0.0782 0.19284,0.0877 0.25976,0.10937 0.022,-0.0403 -0.0332,0.0438 -0.0137,-0.0332 0.0638,-0.25216 0.12441,-0.65625 0.15625,-1.13476 0.0637,-0.95704 0.0231,-1.67646 -0.14063,-2.91421 -0.16372,-1.23775 -0.45831,-2.45648 -0.83593,-3.30469 -0.32565,-0.73146 -0.62642,-0.93523 -0.82617,-1.03515 -0.21294,0.0997 -0.25671,0.13195 -0.58204,0.26171 -0.66491,0.26521 -1.42061,0.57368 -2.32226,0.55079 -0.90917,-0.0231 -1.58933,-0.41388 -2.11719,-0.70313 -0.75441,-0.44652 -1.4771,-0.51875 -2.15696,-0.36164 -1.50039,0.34672 -2.79223,1.81038 -3.75631,2.83273 -1.13352,1.21428 -2.30104,2.7693 -3.39935,4.74031 -2.44764,-5.66772 2.80426,-7.81371 5.0959,-11.27581 z m -18.59575,-32.4883 c 0.0827,-3.1689 0.44545,-6.07928 2.40124,-7.51917 -0.27291,3.73599 8.3e-4,7.47198 0.6014,11.20797 l -4.29563,-1.63429 -1.03123,-0.88655 c -0.0636,0.11218 -0.10769,0.17441 -0.18164,0.32227 -0.31574,0.63133 -0.69565,1.55298 -0.98047,2.58203 -0.56962,2.0581 -0.70481,4.47419 0.33399,6.0957 0.11887,0.18604 0.18191,0.40227 0.18164,0.62305 0,-0.46304 -0.0108,-0.11361 0.2539,0.0449 0.26468,0.15854 0.59235,0.23118 0.87696,0.14649 0.25424,-0.0753 0.52666,-0.0608 0.77148,0.041 0.92221,0.38099 1.77475,0.91668 2.54102,1.36914 2.19365,1.29528 4.0007,0.78377 5.84915,-0.83083 1.35625,-1.18468 1.38661,-1.89079 2.07757,-3.55375 1.18294,-2.84701 1.37013,-6.04923 1.47617,-9.13039 0.0686,-1.99361 -0.54673,-5.95935 -0.54673,-5.95935 2.60924,2.15549 2.8513,10.07283 2.56963,13.94161 0,0 2.50891,-0.54564 3.24621,-1.4614 0.4774,-0.59294 1.09539,-0.67582 0.38464,-2.04107 -0.56244,-1.08037 -1.43333,-2.00075 -2.20899,-3.37891 -1.25223,-2.22492 -1.98361,-4.88511 -3.09375,-6.60742 -1.67186,-2.59379 -3.38949,-4.56713 -5.87109,-6.27344 -0.64817,-0.44567 -1.39475,-0.76221 -2.04688,-0.8125 l -3e-5,6e-5 c -0.75558,-0.0583 -1.53641,0.0834 -1.92382,0.36914 -0.69759,0.51447 -1.66129,2.10296 -2.28516,3.53711 -0.56153,1.29086 -0.82733,2.19754 -0.89258,2.41211 0.0225,0.0669 0.0352,0.17773 0.0762,0.2207 0.0715,0.0749 0.2615,0.19563 0.58399,0.40821 l 2.65928,-5.56281 c -1.65354,4.00379 -2.93533,8.1044 -1.52647,12.33039 z"
       id="path7962"
       inkscape:connector-curvature="0"
       sodipodi:nodetypes="cccccccsccccccccccccscccccccccccccssssccsccccccccccccccc" />
    <path
       style="color:#000000;font-style:normal;font-variant:normal;font-weight:normal;font-stretch:normal;font-size:medium;line-height:normal;font-family:sans-serif;font-variant-ligatures:normal;font-variant-position:normal;font-variant-caps:normal;font-variant-numeric:normal;font-variant-alternates:normal;font-feature-settings:normal;text-indent:0;text-align:start;text-decoration:none;text-decoration-line:none;text-decoration-style:solid;text-decoration-color:#000000;letter-spacing:normal;word-spacing:normal;text-transform:none;writing-mode:lr-tb;direction:ltr;text-orientation:mixed;dominant-baseline:auto;baseline-shift:baseline;text-anchor:start;white-space:normal;shape-padding:0;clip-rule:nonzero;display:inline;overflow:visible;visibility:visible;opacity:1;isolation:auto;mix-blend-mode:normal;color-interpolation:sRGB;color-interpolation-filters:linearRGB;solid-color:#000000;solid-opacity:1;vector-effect:none;fill:#000000;fill-opacity:1;fill-rule:nonzero;stroke:none;stroke-width:1px;stroke-linecap:butt;stroke-linejoin:miter;stroke-miterlimit:4;stroke-dasharray:none;stroke-dashoffset:0;stroke-opacity:1;color-rendering:auto;image-rendering:auto;shape-rendering:auto;text-rendering:auto;enable-background:accumulate"
       d="m -479.56795,-56.53337 c -1.31964,0.41011 -2.52552,1.73846 -3.62109,4.03711 -0.57509,1.20661 -1.2711,2.73255 -1.76563,4.42968 l 0.95899,0.2793 c 0.45515,-1.56198 0.93459,-2.89015 1.42773,-4.00781 1.07831,-2.44387 1.88726,-3.61579 3,-4.73828 z m 7.26172,6.72265 c 0,0 0.84145,2.1661 1.08594,4.79883 0.23776,2.56004 0.0818,5.29728 -0.10156,6.70117 -0.23611,1.80731 -0.6419,4.2975 -1.48243,5.72852 -0.91444,1.55684 -2.21621,3.05272 -3.79101,3.68945 -0.077,0.0311 -0.39972,0.084 -0.66211,0.0957 -0.26238,0.0117 -0.47656,0.004 -0.47656,0.004 l -0.0352,0.99805 c 0,0 0.25055,0.0103 0.55664,-0.004 0.30609,-0.0136 0.65365,-0.0292 0.99218,-0.16601 1.89308,-0.76541 3.29925,-2.44084 4.2793,-4.10938 0.21686,-0.36921 0.39845,-0.78173 0.56055,-1.21094 1.20688,-0.20401 2.56876,-0.64767 3.7832,-1.1875 0.68781,-0.30573 1.32267,-0.63556 1.8457,-0.96875 0.52304,-0.33318 0.93506,-0.65039 1.19727,-1.03125 l -0.82422,-0.5664 c -0.10801,0.15687 -0.44367,0.45674 -0.91016,0.7539 -0.46649,0.29716 -1.06397,0.61108 -1.71484,0.90039 -0.96743,0.43003 -2.0591,0.80463 -3.02539,1.02344 0.35996,-1.30809 0.55295,-2.69874 0.69922,-3.81836 0.1997,-1.52857 0.0771,-4.23894 -0.16602,-6.85742 -0.2659,-2.86332 -1.81054,-4.77344 -1.81054,-4.77344 z m -8.17187,9.76759 -0.21289,-0.99609 c -0.49517,-2.31076 -0.18221,-6.12869 -0.1543,-7.89649 v -1e-5 c -0.80836,1.24136 -1.18278,4.58334 -0.85938,7.19532 l -2.62109,-1.25782 -0.43359,0.90039 0.8164,0.39258 c -0.15098,0.2059 -0.29323,0.44229 -0.43164,0.73633 -0.35342,0.75083 -0.68469,1.79124 -0.89453,2.99219 -0.41968,2.40189 -0.35492,5.45607 1.25391,7.89258 l 0.83593,-0.55274 c -1.40066,-2.12125 -1.49671,-4.92879 -1.10546,-7.16797 0.19562,-1.11959 0.51301,-2.09373 0.8164,-2.73828 0.1517,-0.32227 0.3035,-0.56398 0.42578,-0.70019 z m 18.17388,31.90229 c -2.80285,1.06174 -4.78754,2.79465 -5.83984,4.52149 -0.70624,1.15896 -1.46526,2.85142 -0.71485,3.77343 0.007,-0.0786 0.11678,-0.55251 0.36329,-1.13085 0.24651,-0.57833 0.62638,-1.30338 1.16601,-2.06446 1.07925,-1.52217 2.79006,-3.18338 5.37891,-4.16406 z"
       id="path7964"
       inkscape:connector-curvature="0"
       sodipodi:nodetypes="ccccccccccccccccscccccscccccccccccccccsccccccccccccc" />
    <path
       style="display:inline;fill:#ffffff;stroke:none;stroke-width:1px;stroke-linecap:butt;stroke-linejoin:miter;stroke-opacity:1"
       d="m -478.82185,-55.51189 c -0.0852,0.008 -0.1683,0.0243 -0.24805,0.0527 -1.42205,0.50741 -2.3984,2.39581 -3.01367,4.79297 -0.59122,2.30342 -0.77344,4.5996 -0.77344,4.5996 0,0 0.55835,-2.11236 1.59766,-4.23632 0.8946,-1.82825 2.1094,-3.13501 3.25,-3.64063 0.79014,-0.35026 2.27343,0.37891 2.27343,0.37891 0,0 -1.80856,-2.06439 -3.08593,-1.94727 z m 1.98632,2.17774 c -0.13682,-4.5e-4 -0.27671,0.013 -0.41601,0.0449 -0.90402,0.20684 -1.64456,0.65029 -2.00195,1.86523 -0.87242,2.96572 -0.0503,9.0853 0.44531,12.11133 0,0 1.22624,0.8251 1.71484,1.36914 0.53882,0.59994 1.29883,2.03906 1.29883,2.03906 0,0 -0.94916,-0.80141 -1.48438,-1.11132 -0.38145,-0.22088 -1.21484,-0.52344 -1.21484,-0.52344 l -4.55859,-1.72656 c -0.61673,1.93415 -0.8323,3.86858 -0.34571,5.80273 0,0 3.1018,2.2479 4.9043,2.2793 0.64994,0.0113 1.47179,-0.16362 1.93359,-0.6211 1.35536,-1.34265 1.91462,-2.85707 2.41797,-4.69726 0.88158,-3.22309 1.19736,-7.30514 0.9668,-10.63867 -0.11022,-1.59361 -0.31788,-3.32412 -1.24219,-4.62696 -0.57879,-0.81583 -1.46018,-1.56325 -2.41797,-1.5664 z m 7.3086,9.46289 c 0.19558,2.24723 0.69401,3.28815 0.53125,6.96875 0,0 1.59472,-0.37637 2.04492,-0.98438 0.19758,-0.26687 0.20964,-0.65729 0.15234,-0.98437 -0.14278,-0.81541 -0.68016,-1.18862 -1.24023,-2.11914 -0.72406,-1.20296 -1.48828,-2.88086 -1.48828,-2.88086 z m 4.24219,10.45312 -1.51368,0.75586 c 0,0 1.59841,2.35754 2.04493,3.48438 0.9194,2.32029 0.98437,7.42382 0.98437,7.42382 0,0 -0.5094,-4.84643 -1.5918,-6.96875 -0.60965,-1.19537 -2.34765,-3.4082 -2.34765,-3.4082 l -1.21094,0.68164 c 0,0 1.69092,1.91221 2.19531,3.0293 1.19021,2.63597 2.12192,5.45561 2.42383,8.33203 0.1427,1.35957 -0.0409,2.74812 -0.30273,4.08984 -0.29975,1.53589 -1.43946,4.46875 -1.43946,4.46875 0,0 0.53072,-2.71379 0.60742,-4.08984 0.0787,-1.4125 0.0724,-2.84547 -0.15234,-4.24219 -0.43032,-2.67402 -1.14749,-5.33659 -2.27148,-7.80078 -0.5609,-1.22968 -2.19727,-3.4082 -2.19727,-3.4082 l -0.9082,1.74219 c 0,0 3.17977,7.13613 3.02929,10.90625 -0.0879,2.20264 -0.72709,4.38948 -1.96875,6.21093 -0.66486,0.97533 -2.65234,2.34766 -2.65234,2.34766 0,0 1.66152,-1.90288 2.19727,-3.0293 0.67336,-1.41574 1.13793,-2.97891 1.21093,-4.54492 0.0847,-1.81594 -0.46455,-3.61401 -0.9082,-5.37695 -0.50073,-1.98976 -1.96875,-5.83203 -1.96875,-5.83203 l -1.43945,1.66601 c 0,0 1.04624,2.57802 1.06054,3.9375 0.0211,2.00216 -1.43845,3.82976 -1.43945,5.83203 -10e-4,2.3329 0.3115,7.24383 0,7.34766 -0.26519,0.35359 -1.41489,-4.47794 -0.98437,-7.42383 0.2685,-1.83725 1.13758,-3.59636 1.13672,-5.45312 -5.1e-4,-1.10912 -0.68165,-3.25586 -0.68165,-3.25586 h -1.21289 c 0,0 0.26438,2.27653 0.15235,3.4082 -0.18699,1.88895 -1.31528,3.63172 -1.36328,5.5293 -0.0201,0.79691 0.31749,1.56211 0.45312,2.34765 0.34322,1.98793 0.23117,4.08278 0.91016,5.98243 0.31623,0.88472 0.86294,1.68192 1.43945,2.42382 0.32861,0.42289 0.60547,1.21832 1.13477,1.13672 1.40618,-0.21675 1.03427,-2.71423 1.96875,-3.78711 0.63032,-0.72367 1.74073,-0.9242 2.34961,-1.66601 1.17585,-1.43256 2.27148,-5.07422 2.27148,-5.07422 0,0 -0.22012,3.80304 -1.06055,5.45312 -0.68911,1.35297 -2.22926,2.09201 -3.10547,3.33203 -0.78848,1.11587 -0.63478,3.10108 -1.89257,3.63477 -0.65447,0.2777 -1.50162,-0.14692 -2.04493,-0.60547 -1.26837,-1.07051 -1.71704,-2.88 -2.19726,-4.46875 -0.61882,-2.04732 -0.83203,-6.36133 -0.83203,-6.36133 0,0 -0.44408,2.41357 -0.45508,3.63477 -0.0235,2.61506 -0.0578,5.34167 0.83203,7.80078 0.49557,1.36952 1.19168,2.86019 2.42383,3.63672 1.35925,0.85663 4.77148,0.68164 4.77148,0.68164 0,0 -0.78993,-1.88105 -0.83203,-2.87891 -0.0489,-1.15755 0.13495,-2.38671 0.68164,-3.4082 1.22984,-2.29797 4.16983,-3.30556 5.5293,-5.5293 0.85787,-1.40324 1.24698,-3.07238 1.51367,-4.69531 0.59774,-3.63752 0.76545,-7.42167 0.15235,-11.05664 -0.40645,-2.40978 -2.5,-6.89258 -2.5,-6.89258 z m 4.12695,27.5293 c -0.14668,-0.006 -0.29475,0.007 -0.44336,0.043 -2.27471,0.55135 -3.73202,2.92615 -5.10156,4.82422 -0.29951,0.41509 -0.65039,1.39062 -0.65039,1.39062 0,0 4.25562,-1.62095 6.49414,-1.76172 1.77639,-0.11171 5.28711,0.74219 5.28711,0.74219 0,0 -0.89263,-1.37083 -1.57618,-1.76367 -1.0674,-0.61344 -2.38985,-0.64569 -3.61718,-0.74219 -0.67892,-0.0534 -2.04102,0.0937 -2.04102,0.0937 0,0 1.56166,-0.81134 2.41211,-0.83594 1.47756,-0.0427 3.02019,0.41085 4.26563,1.20703 0.96083,0.61424 2.22656,2.59766 2.22656,2.59766 0,0 0.18455,-1.36608 0.0937,-2.04102 -0.14734,-1.09518 -0.0841,-2.56918 -1.02149,-3.15429 -0.92746,-0.57889 -2.15546,0.53929 -3.24609,0.46289 -1.06779,-0.0748 -2.05527,-1.02027 -3.08203,-1.0625 z"
       id="path7966"
       inkscape:connector-curvature="0" />
    <path
       style="fill:#ffffff;fill-opacity:1;stroke:none;stroke-width:1px;stroke-linecap:butt;stroke-linejoin:miter;stroke-opacity:1"
       d="m -489.68318,-44.96306 c 0.007,0.28305 1.0978,1.17306 0.90485,1.34436 -0.19293,0.1713 -1.66955,-0.3761 -1.94977,-0.41663 -2.31946,-0.3237 -3.88242,-1.03312 -3.87934,-0.62783 10e-4,0.16905 1.31288,0.57972 3.0895,1.1764 -2.60851,-0.33207 -3.70139,-0.96306 -3.65254,-0.45891 0.0272,0.2807 1.63079,0.61421 3.56733,1.25477 0.04,0.27899 -3.49827,-0.79087 -3.57611,-0.68625 -0.2784,0.37419 2.10422,1.10501 3.46242,1.4446 -0.32794,0.18497 -2.59151,-0.49927 -2.5698,-0.13796 0.0212,0.3535 1.04286,0.3741 2.26749,0.77148 1.26064,0.40907 2.8065,0.83288 3.67383,0.90821 0.19405,0.0165 0.45583,-0.0219 0.73047,-0.0488 0.29672,-0.80602 0.59137,-1.43655 0.88281,-1.94532 -0.38219,-0.45866 -0.84862,-1.02814 -1.2207,-1.36132 -0.42546,-0.38098 -1.38232,-0.99111 -1.73047,-1.2168 z"
       id="path7968"
       inkscape:connector-curvature="0"
       sodipodi:nodetypes="cscscscscsccccccc" />
    <path
       style="fill:#ffffff;fill-opacity:1;stroke:none;stroke-width:1px;stroke-linecap:butt;stroke-linejoin:miter;stroke-opacity:1"
       d="m -450.4742,-6.70134 c -0.0784,-0.008 -0.53235,0.0895 -0.98828,0.32422 -0.23991,0.12347 -0.43184,0.27124 -0.65625,0.41797 0.78137,1.71314 1.14797,3.78584 1.21289,5.74023 0.022,0.0136 0.0364,0.008 0.0586,0.0234 0.71322,0.48458 1.31752,1.15456 1.69727,1.96094 0.289,0.61368 0.21363,1.13125 0.20898,1.45312 -0.005,0.32188 0.0428,0.37828 -0.002,0.32227 0.61032,0.22039 1.36617,-0.31075 0.98778,-1.56797 0.36066,0.0969 0.69289,1.19597 0.80104,1.40029 0.0247,0.0467 0.14204,0.16218 0.1588,0.20168 0.76687,0.15109 1.2367,-0.77296 1.37244,-1.24805 0.19491,-0.68216 -0.0114,-1.46032 -0.43334,-2.41288 -0.24055,-0.54313 -0.73049,-1.06509 -1.33203,-1.66015 -0.60153,-0.59507 -1.3103,-1.25861 -1.77734,-2.21289 -0.26708,-0.54572 -0.28135,-1.03538 -0.31641,-1.37891 -0.0351,-0.34353 -0.0853,-0.522 -0.11914,-0.57422 -0.28846,-0.44481 -0.72794,-0.77436 -0.87305,-0.78906 z"
       id="path7970"
       inkscape:connector-curvature="0"
       sodipodi:nodetypes="cccccccccccsccccccc" />
    <path
       style="fill:#ffffff;stroke:none;stroke-width:1px;stroke-linecap:butt;stroke-linejoin:miter;stroke-opacity:1"
       d="m -469.78713,-51.71027 c -1.27687,-0.85409 -2.93511,-3.55303 -2.93511,-3.55303 0.96259,-2.41741 0.8931,-4.80487 0.33622,-7.02106 -0.85547,-3.40445 -3.74193,-6.02724 -4.92316,-8.11107 -1.17533,-2.07341 -0.66302,-3.24724 1.74848,-3.37113 1.63202,-0.0838 2.41398,0.12989 3.8712,0.81904 15.12634,7.1535 16.32929,19.39933 17.03573,21.70068 0,0 -1.55393,-0.36506 -2.11318,-0.88511 -1.22258,-1.13688 -1.42485,-3.02436 -2.26499,-4.46705 -1.12694,-1.93518 -2.04294,-4.10656 -3.71205,-5.59954 -1.33526,-1.19436 -4.78164,-2.45373 -4.78164,-2.45373 0,0 3.52826,2.25096 4.40414,4.15247 0.34499,0.74897 0.65945,2.32839 0.12583,2.95706 -0.38024,0.44797 -1.18296,0.16476 -1.76165,0.0629 -1.04708,-0.18431 -3.64914,-2.95706 -3.64914,-2.95706 0,0 2.16187,2.80762 2.51664,3.71205 0.30346,0.77359 1.05536,1.89483 0.44041,2.45373 -0.40291,0.3662 -1.33451,0.30019 -1.82456,0.0629 -0.77023,-0.37292 -2.07624,-1.50999 -2.07624,-1.50999 0,0 1.17503,1.58238 1.38416,2.51665 0.14688,0.65618 0.4273,1.63097 -0.12583,2.01332 -0.48638,0.33621 -1.2038,-0.19331 -1.69526,-0.52205 z"
       id="path7972"
       inkscape:connector-curvature="0"
       sodipodi:nodetypes="scsssscssscssscssscsss" />
    <path
       style="fill:#ffffff;stroke:none;stroke-width:1px;stroke-linecap:butt;stroke-linejoin:miter;stroke-opacity:1"
       d="m -450.71462,-12.58796 c -5.17998,-19.3041 -2.56715,-24.97079 -3.61807,-37.04904 l -2.46028,-1.44722 c 2.17084,12.92857 -0.31175,28.9431 6.07835,38.49626 z"
       id="path7974"
       inkscape:connector-curvature="0"
       sodipodi:nodetypes="cccc" />
    <path
       sodipodi:nodetypes="csccsssc"
       inkscape:connector-curvature="0"
       id="path7976"
       d="m -453.46435,-16.6402 c -2.09021,-4.88016 -2.26887,-12.57539 -2.67954,-17.50525 -0.68805,-8.25971 -0.5319,-13.8861 -2.09631,-18.09656 l -2.16432,-1.03287 c 0.50171,2.988 0.93012,5.0613 1.34342,8.69779 0.42844,3.76966 1.13612,8.34313 1.56841,11.98474 0.58293,4.91056 0.59449,9.15931 1.41537,12.14719 0.52404,1.90742 1.6234,3.47634 2.61297,3.80496 z"
       style="fill:#ffffff;stroke:none;stroke-width:1px;stroke-linecap:butt;stroke-linejoin:miter;stroke-opacity:1" />
    <path
       style="fill:#ffffff;stroke:none;stroke-width:1px;stroke-linecap:butt;stroke-linejoin:miter;stroke-opacity:1"
       d="m -462.35088,-57.33916 c 0.71312,-1.14441 0.16369,-2.64397 -0.17758,-3.43322 0,0 1.51607,1.95159 2.13096,3.01887 0.80214,1.39231 2.01258,4.38031 2.01258,4.38031 0,0 -1.55111,-0.33411 -2.13097,-0.82871 -0.92173,-0.78622 -1.83499,-3.13725 -1.83499,-3.13725 z"
       id="path7978"
       inkscape:connector-curvature="0"
       sodipodi:nodetypes="ccscsc" />
    <path
       style="fill:#ffffff;stroke:none;stroke-width:1px;stroke-linecap:butt;stroke-linejoin:miter;stroke-opacity:1"
       d="m -465.25136,-56.984 c 0.61875,0.37729 1.14328,0.91947 2.36774,0.23677 1.27183,1.89034 1.77276,3.59814 1.7758,5.86015 -1.67472,-0.57732 -2.72311,-1.57016 -3.78838,-2.95967 0.50125,-1.04575 -0.1464,-2.0915 -0.35516,-3.13725 z"
       id="path7980"
       inkscape:connector-curvature="0"
       sodipodi:nodetypes="ccccc" />
    <path
       style="fill:#ffffff;stroke:none;stroke-width:1px;stroke-linecap:butt;stroke-linejoin:miter;stroke-opacity:1"
       d="m -467.38232,-50.88708 c 0.32152,-0.94709 0.29113,-1.71661 0,-2.6637 0.93946,0.52659 1.34911,0.17017 1.835,-0.0592 1.52803,1.49654 2.54759,3.1302 2.54531,4.85386 -1.72159,0.11086 -3.27726,-0.31088 -4.38031,-2.13096 z"
       id="path7982"
       inkscape:connector-curvature="0"
       sodipodi:nodetypes="ccccc" />
    <path
       style="fill:#ffffff;stroke:none;stroke-width:1px;stroke-linecap:butt;stroke-linejoin:miter;stroke-opacity:1"
       d="m -462.64685,-50.94627 c 0.66063,0.29216 0.87914,0.76118 2.24935,0.76951 0.82427,5.46159 1.6392,10.99785 2.30854,17.69882 -1.45273,-0.51686 -1.90016,-3.17982 -2.47785,-7.85913 -0.45986,-3.72493 -1.40666,-7.88069 -2.08004,-10.6092 z"
       id="path7984"
       inkscape:connector-curvature="0"
       sodipodi:nodetypes="cccsc" />
    <path
       style="fill:#ffffff;stroke:none;stroke-width:1px;stroke-linecap:butt;stroke-linejoin:miter;stroke-opacity:1"
       d="m -465.13297,-48.51935 2.30854,0.23678 c 1.05955,3.12984 1.30255,5.23898 1.7758,7.63594 -2.60155,-1.37846 -2.75845,-5.93781 -4.08434,-7.87272 z"
       id="path7986"
       inkscape:connector-curvature="0"
       sodipodi:nodetypes="cccc" />
    <path
       style="fill:#ffffff;stroke:none;stroke-width:1px;stroke-linecap:butt;stroke-linejoin:miter;stroke-opacity:1"
       d="m -468.92135,-50.29515 3.07806,1.89419 c 0,0 1.11081,1.9633 1.00629,3.01886 -0.047,0.47491 -0.71032,1.24306 -0.71032,1.24306 0,0 -0.70512,-0.21658 -0.9471,-0.47354 -1.41209,-1.49947 -2.42693,-5.68257 -2.42693,-5.68257 z"
       id="path7988"
       inkscape:connector-curvature="0"
       sodipodi:nodetypes="ccscsc" />
  </g>
  </g>
</svg>
